<svg width="26" height="26" viewBox="0 0 26 26" fill="none" xmlns="http://www.w3.org/2000/svg">
<path d="M18.4167 11.9167C18.785 11.9167 19.1425 11.96 19.5 12.0142V6.7925L11.375 3.25L3.25 6.7925V12.1117C3.25 17.03 6.71667 21.6342 11.375 22.75C11.9708 22.6092 12.545 22.4033 13.1083 22.1542C12.3608 21.0925 11.9167 19.8033 11.9167 18.4167C11.9167 14.8308 14.8308 11.9167 18.4167 11.9167Z" fill="#E1E1E1"/>
<path d="M18.4168 14.0833C16.0227 14.0833 14.0835 16.0225 14.0835 18.4167C14.0835 20.8108 16.0227 22.75 18.4168 22.75C20.811 22.75 22.7502 20.8108 22.7502 18.4167C22.7502 16.0225 20.811 14.0833 18.4168 14.0833ZM18.4168 15.5783C19.0885 15.5783 19.6302 16.1308 19.6302 16.7917C19.6302 17.4525 19.0777 18.005 18.4168 18.005C17.756 18.005 17.2035 17.4525 17.2035 16.7917C17.2035 16.1308 17.7452 15.5783 18.4168 15.5783ZM18.4168 21.3958C17.4093 21.3958 16.5318 20.8975 15.9902 20.1283C16.0443 19.3483 17.626 18.9583 18.4168 18.9583C19.2077 18.9583 20.7893 19.3483 20.8435 20.1283C20.3018 20.8975 19.4243 21.3958 18.4168 21.3958Z" fill="#E1E1E1"/>
</svg>
