<svg width="41" height="41" viewBox="0 0 41 41" fill="none" xmlns="http://www.w3.org/2000/svg">
<g clip-path="url(#clip0)">
<path d="M35.374 15.008H16.4359C15.9683 15.008 15.5892 15.3871 15.5892 15.8548C15.5892 16.3224 15.9683 16.7016 16.4359 16.7016H35.374C35.8417 16.7016 36.2208 16.3224 36.2208 15.8548C36.2208 15.3871 35.8417 15.008 35.374 15.008Z" fill="white" stroke="white" stroke-width="0.5"/>
<path d="M35.374 19.5701H16.4359C15.9683 19.5701 15.5892 19.9492 15.5892 20.4169C15.5892 20.8845 15.9683 21.2636 16.4359 21.2636H35.374C35.8417 21.2636 36.2208 20.8845 36.2208 20.4169C36.2208 19.9492 35.8417 19.5701 35.374 19.5701Z" fill="white" stroke="white" stroke-width="0.5"/>
<path d="M35.374 24.1321H16.4359C15.9683 24.1321 15.5892 24.5113 15.5892 24.9789C15.5892 25.4466 15.9683 25.8257 16.4359 25.8257H35.374C35.8417 25.8257 36.2208 25.4466 36.2208 24.9789C36.2208 24.5113 35.8417 24.1321 35.374 24.1321Z" fill="white" stroke="white" stroke-width="0.5"/>
<path d="M37.2961 29.8288H37.296C36.8327 29.8348 36.4601 30.2121 36.4601 30.6755V36.1866L32.0386 30.5889C32.0386 30.5889 32.0386 30.5889 32.0386 30.5889C31.6578 30.1067 31.0858 29.8296 30.4715 29.8296H14.5403C13.4226 29.8296 12.5128 28.9199 12.5128 27.8021V13.5097C12.5128 12.392 13.4225 11.4822 14.5403 11.4822H37.2697C38.3874 11.4822 39.2972 12.392 39.2972 13.5097V27.8022C39.2972 28.9049 38.3988 29.8148 37.2961 29.8288ZM37.2697 9.7887H14.5403C12.4883 9.7887 10.8192 11.4577 10.8192 13.5098V27.8022C10.8192 29.8542 12.4882 31.5233 14.5403 31.5233H30.4715C30.5654 31.5233 30.6513 31.5649 30.7096 31.6387L35.8543 38.1518C36.1042 38.4682 36.4722 38.6434 36.8588 38.6434C37.0021 38.6434 37.1469 38.6194 37.288 38.5703C37.8125 38.3882 38.1538 37.9084 38.1538 37.3532V31.4156C39.7775 31.0157 40.9908 29.5414 40.9908 27.8022V13.5097C40.9908 11.4577 39.3218 9.7887 37.2697 9.7887Z" fill="white" stroke="white" stroke-width="0.5"/>
<path d="M3.91324 24.9685V20.4866C3.91324 20.0232 3.54066 19.6459 3.07732 19.6399H3.07728C2.17719 19.6284 1.44358 18.8854 1.44358 17.9853V5.54338C1.44358 4.63087 2.18641 3.88803 3.09892 3.88803H22.8855C23.798 3.88803 24.5408 4.63087 24.5408 5.54338V7.84555C24.5408 8.31321 24.92 8.69234 25.3876 8.69234C25.8553 8.69234 26.2344 8.31321 26.2344 7.84555V5.54338C26.2344 3.69659 24.7323 2.19446 22.8855 2.19446H3.09892C1.25213 2.19446 -0.25 3.69659 -0.25 5.54338V17.9853C-0.25 19.521 0.800522 20.8266 2.21975 21.2157V26.2998C2.21975 26.8302 2.54592 27.2888 3.04707 27.4629C3.18183 27.5097 3.32015 27.5327 3.45715 27.5327C3.82664 27.5327 4.17846 27.3651 4.41714 27.063L4.22096 26.908L4.41715 27.063L8.89576 21.393L8.89583 21.3929C8.92058 21.3616 8.95542 21.3415 8.99529 21.3358C9.45824 21.27 9.7803 20.8413 9.71448 20.3783C9.64878 19.9156 9.22079 19.5931 8.75708 19.659C8.28527 19.726 7.86206 19.9693 7.56669 20.3432L7.76286 20.4982L7.56668 20.3432L3.91324 24.9685Z" fill="white" stroke="white" stroke-width="0.5"/>
</g>
<defs>
<clipPath id="clip0">
<rect width="40.7407" height="40.7407" fill="white"/>
</clipPath>
</defs>
</svg>
