<svg width="35" height="57" viewBox="0 0 35 57" fill="none" xmlns="http://www.w3.org/2000/svg">
<path d="M11.7812 49.3994H7.46777V52.9268H12.4785V54H6.15527V44.0469H12.4102V45.127H7.46777V48.3262H11.7812V49.3994ZM17.0449 49.5635C15.9193 49.2399 15.099 48.8434 14.584 48.374C14.0736 47.9001 13.8184 47.3167 13.8184 46.624C13.8184 45.8402 14.1305 45.193 14.7549 44.6826C15.3838 44.1676 16.1995 43.9102 17.2021 43.9102C17.8857 43.9102 18.4941 44.0423 19.0273 44.3066C19.5651 44.571 19.9798 44.9355 20.2715 45.4004C20.5677 45.8652 20.7158 46.3734 20.7158 46.9248H19.3965C19.3965 46.3232 19.2051 45.8516 18.8223 45.5098C18.4395 45.1634 17.8994 44.9902 17.2021 44.9902C16.555 44.9902 16.0492 45.1338 15.6846 45.4209C15.3245 45.7035 15.1445 46.0977 15.1445 46.6035C15.1445 47.0091 15.3154 47.3532 15.6572 47.6357C16.0036 47.9137 16.5892 48.1689 17.4141 48.4014C18.2435 48.6338 18.8906 48.8913 19.3555 49.1738C19.8249 49.4518 20.1712 49.7777 20.3945 50.1514C20.6224 50.5251 20.7363 50.9648 20.7363 51.4707C20.7363 52.2773 20.4219 52.9245 19.793 53.4121C19.1641 53.8952 18.3232 54.1367 17.2705 54.1367C16.5869 54.1367 15.9489 54.0068 15.3564 53.7471C14.764 53.4827 14.306 53.1227 13.9824 52.667C13.6634 52.2113 13.5039 51.694 13.5039 51.1152H14.8232C14.8232 51.7168 15.0443 52.193 15.4863 52.5439C15.9329 52.8903 16.5277 53.0635 17.2705 53.0635C17.9632 53.0635 18.4941 52.9222 18.8633 52.6396C19.2324 52.3571 19.417 51.972 19.417 51.4844C19.417 50.9967 19.2461 50.6208 18.9043 50.3564C18.5625 50.0876 17.9427 49.8232 17.0449 49.5635ZM29.7461 50.8418C29.623 51.8945 29.2334 52.708 28.5771 53.2822C27.9255 53.8519 27.0573 54.1367 25.9727 54.1367C24.7969 54.1367 23.8535 53.7152 23.1426 52.8721C22.4362 52.029 22.083 50.901 22.083 49.4883V48.5312C22.083 47.6061 22.2471 46.7926 22.5752 46.0908C22.9079 45.389 23.3773 44.8512 23.9834 44.4775C24.5895 44.0993 25.2913 43.9102 26.0889 43.9102C27.1462 43.9102 27.9938 44.2064 28.6318 44.7988C29.2699 45.3867 29.6413 46.2025 29.7461 47.2461H28.4268C28.3128 46.4531 28.0645 45.8789 27.6816 45.5234C27.3034 45.168 26.7725 44.9902 26.0889 44.9902C25.2503 44.9902 24.5918 45.3001 24.1133 45.9199C23.6393 46.5397 23.4023 47.4215 23.4023 48.5654V49.5293C23.4023 50.6094 23.6279 51.4684 24.0791 52.1064C24.5303 52.7445 25.1615 53.0635 25.9727 53.0635C26.7018 53.0635 27.2601 52.8994 27.6475 52.5713C28.0394 52.2386 28.2992 51.6621 28.4268 50.8418H29.7461Z" fill="#C4C4C4"/>
<path d="M21.2774 11.6666L17.5003 15.4437L13.7232 11.6666L11.667 13.7229L15.4441 17.5L11.667 21.277L13.7232 23.3333L17.5003 19.5562L21.2774 23.3333L23.3337 21.277L19.5566 17.5L23.3337 13.7229L21.2774 11.6666ZM17.5003 2.91663C9.43574 2.91663 2.91699 9.43538 2.91699 17.5C2.91699 25.5645 9.43574 32.0833 17.5003 32.0833C25.5649 32.0833 32.0837 25.5645 32.0837 17.5C32.0837 9.43538 25.5649 2.91663 17.5003 2.91663ZM17.5003 29.1666C11.0691 29.1666 5.83366 23.9312 5.83366 17.5C5.83366 11.0687 11.0691 5.83329 17.5003 5.83329C23.9316 5.83329 29.167 11.0687 29.167 17.5C29.167 23.9312 23.9316 29.1666 17.5003 29.1666Z" fill="#C4C4C4"/>
</svg>
