<svg width="59" height="32" viewBox="0 0 59 32" fill="none" xmlns="http://www.w3.org/2000/svg">
<path d="M55.3647 30.4237H3.63528C2.10483 30.4237 0.864258 29.1831 0.864258 27.6526V3.63528C0.864258 2.10483 2.10483 0.864258 3.63528 0.864258H55.3643C56.8952 0.864258 58.1357 2.10483 58.1357 3.63528V27.6526C58.1357 29.1831 56.8952 30.4237 55.3647 30.4237Z" fill="#F2C94C"/>
<path d="M3.63528 21.1865V0.864258C2.10483 0.864258 0.864258 2.10483 0.864258 3.63528V27.6526C0.864258 29.1831 2.10483 30.4237 3.63528 30.4237H55.3643C56.8952 30.4237 58.1357 29.1831 58.1357 27.6526H10.1015C6.53055 27.6526 3.63528 24.7574 3.63528 21.1865Z" fill="#FFD963"/>
<path d="M0.864258 12.8135C1.3414 12.8135 1.72852 12.4264 1.72852 11.9493V3.63528C1.72852 2.58377 2.58377 1.72852 3.63528 1.72852H50.7459C51.223 1.72852 51.6101 1.3414 51.6101 0.864258C51.6101 0.387115 51.223 0 50.7459 0H3.63528C1.63084 0 0 1.63084 0 3.63528V11.9493C0 12.4264 0.387115 12.8135 0.864258 12.8135Z" fill="black"/>
<path d="M55.3647 0H54.4406C53.9634 0 53.5763 0.387115 53.5763 0.864258C53.5763 1.3414 53.9634 1.72852 54.4406 1.72852H55.3647C56.4162 1.72852 57.2715 2.58377 57.2715 3.63528V27.6526C57.2715 28.7042 56.4162 29.5594 55.3647 29.5594H3.63528C2.58377 29.5594 1.72852 28.7042 1.72852 27.6526V17.4918C1.72852 16.9494 2.1692 16.5082 2.71026 16.5082H10.6763L8.73306 17.6741C8.32388 17.9198 8.19109 18.4506 8.43687 18.8597C8.59846 19.1298 8.88475 19.2797 9.17869 19.2797C9.32993 19.2797 9.48343 19.2396 9.62252 19.1564L14.2413 16.3853C14.5015 16.2291 14.6609 15.9474 14.6609 15.644C14.6609 15.3406 14.5015 15.0592 14.2413 14.903L9.62252 12.132C9.2129 11.8862 8.68219 12.019 8.43687 12.4282C8.19109 12.8374 8.32388 13.3685 8.73306 13.6139L10.6763 14.7797H2.71026C1.21581 14.7797 0 15.9964 0 17.4913V27.6522C0 29.6571 1.63084 31.2879 3.63528 31.2879H55.3643C57.3692 31.2879 59 29.6571 59 27.6522V3.63528C59 1.63084 57.3692 0 55.3647 0Z" fill="black"/>
<path d="M17 19.875V12H24.875V13.125H19.25V15.375H23.75V16.5H19.25V18.75H24.875V19.875H17ZM26 19.875V17.625H27.125V16.5H28.25V15.375H27.125V14.25H26V12H28.25V14.25H29.375V15.375H30.5V14.25H31.625V12H33.875V14.25H32.75V15.375H31.625V16.5H32.75V17.625H33.875V19.875H31.625V17.625H30.5V16.5H29.375V17.625H28.25V19.875H26ZM36.125 19.875V18.75H38.375V13.125H36.125V12H42.875V13.125H40.625V18.75H42.875V19.875H36.125ZM47.375 19.875V13.125H45.125V12H51.875V13.125H49.625V19.875H47.375Z" fill="black"/>
</svg>
