<svg width="30" height="44" viewBox="0 0 30 44" fill="none" xmlns="http://www.w3.org/2000/svg">
<path d="M8.76367 39.7422C8.39453 40.1842 7.87272 40.5283 7.19824 40.7744C6.52376 41.016 5.77637 41.1367 4.95605 41.1367C4.09473 41.1367 3.33822 40.9499 2.68652 40.5762C2.03939 40.1979 1.53809 39.651 1.18262 38.9355C0.831706 38.2201 0.651693 37.3792 0.642578 36.4131V35.7363C0.642578 34.7428 0.808919 33.8838 1.1416 33.1592C1.47884 32.43 1.96191 31.874 2.59082 31.4912C3.22428 31.1038 3.96484 30.9102 4.8125 30.9102C5.99284 30.9102 6.91569 31.1927 7.58105 31.7578C8.24642 32.3184 8.64062 33.1364 8.76367 34.2119H6.76758C6.67643 33.6423 6.47363 33.2253 6.15918 32.9609C5.84928 32.6966 5.4209 32.5645 4.87402 32.5645C4.17676 32.5645 3.64583 32.8265 3.28125 33.3506C2.91667 33.8747 2.7321 34.654 2.72754 35.6885V36.3242C2.72754 37.3678 2.92578 38.1562 3.32227 38.6895C3.71875 39.2227 4.2998 39.4893 5.06543 39.4893C5.83561 39.4893 6.38477 39.3252 6.71289 38.9971V37.2812H4.84668V35.7705H8.76367V39.7422ZM9.99414 37.2334C9.99414 36.4997 10.1354 35.8457 10.418 35.2715C10.7005 34.6973 11.1061 34.2529 11.6348 33.9385C12.168 33.624 12.7855 33.4668 13.4873 33.4668C14.4854 33.4668 15.2988 33.7721 15.9277 34.3828C16.5612 34.9935 16.9144 35.8229 16.9873 36.8711L17.001 37.377C17.001 38.5117 16.6842 39.4232 16.0508 40.1113C15.4173 40.7949 14.5674 41.1367 13.501 41.1367C12.4346 41.1367 11.5824 40.7949 10.9443 40.1113C10.3109 39.4277 9.99414 38.498 9.99414 37.3223V37.2334ZM11.9697 37.377C11.9697 38.0788 12.1019 38.6165 12.3662 38.9902C12.6305 39.3594 13.0088 39.5439 13.501 39.5439C13.9795 39.5439 14.3532 39.3617 14.6221 38.9971C14.891 38.6279 15.0254 38.04 15.0254 37.2334C15.0254 36.5452 14.891 36.012 14.6221 35.6338C14.3532 35.2555 13.9749 35.0664 13.4873 35.0664C13.0042 35.0664 12.6305 35.2555 12.3662 35.6338C12.1019 36.0075 11.9697 36.5885 11.9697 37.377ZM20.3027 41H18.3203V30.5H20.3027V41ZM21.6289 37.2471C21.6289 36.0941 21.8864 35.1758 22.4014 34.4922C22.9209 33.8086 23.6296 33.4668 24.5273 33.4668C25.2474 33.4668 25.8421 33.7357 26.3115 34.2734V30.5H28.2939V41H26.5098L26.4141 40.2139C25.9219 40.8291 25.2884 41.1367 24.5137 41.1367C23.6432 41.1367 22.9437 40.7949 22.415 40.1113C21.891 39.4232 21.6289 38.4684 21.6289 37.2471ZM23.6045 37.3906C23.6045 38.0833 23.7253 38.6143 23.9668 38.9834C24.2083 39.3525 24.5592 39.5371 25.0195 39.5371C25.6302 39.5371 26.0609 39.2796 26.3115 38.7646V35.8457C26.0654 35.3307 25.6393 35.0732 25.0332 35.0732C24.0807 35.0732 23.6045 35.8457 23.6045 37.3906Z" fill="#FFD700"/>
<path d="M24.2222 2.77778H21.4444V0H7.55556V2.77778H4.77778C3.25 2.77778 2 4.02778 2 5.55556V6.94444C2 10.4861 4.66667 13.375 8.09722 13.8056C8.97222 15.8889 10.8472 17.4583 13.1111 17.9167V22.2222H7.55556V25H21.4444V22.2222H15.8889V17.9167C18.1528 17.4583 20.0278 15.8889 20.9028 13.8056C24.3333 13.375 27 10.4861 27 6.94444V5.55556C27 4.02778 25.75 2.77778 24.2222 2.77778ZM4.77778 6.94444V5.55556H7.55556V10.8611C5.94444 10.2778 4.77778 8.75 4.77778 6.94444ZM24.2222 6.94444C24.2222 8.75 23.0556 10.2778 21.4444 10.8611V5.55556H24.2222V6.94444Z" fill="#FFD700"/>
</svg>
