<svg width="33" height="33" viewBox="0 0 33 33" fill="none" xmlns="http://www.w3.org/2000/svg">
<path d="M11 13.75H6.875V9.625H4.125V13.75H0V16.5H4.125V20.625H6.875V16.5H11V13.75ZM24.75 15.125C27.0325 15.125 28.8612 13.2825 28.8612 11C28.8612 8.7175 27.0325 6.875 24.75 6.875C24.31 6.875 23.8838 6.94375 23.4988 7.0675C24.2825 8.18125 24.7362 9.52875 24.7362 11C24.7362 12.4713 24.2688 13.805 23.4988 14.9325C23.8838 15.0563 24.31 15.125 24.75 15.125ZM17.875 15.125C20.1575 15.125 21.9862 13.2825 21.9862 11C21.9862 8.7175 20.1575 6.875 17.875 6.875C15.5925 6.875 13.75 8.7175 13.75 11C13.75 13.2825 15.5925 15.125 17.875 15.125ZM26.9775 18.095C28.1188 19.0988 28.875 20.3775 28.875 22V24.75H33V22C33 19.8825 29.7413 18.5763 26.9775 18.095ZM17.875 17.875C15.125 17.875 9.625 19.25 9.625 22V24.75H26.125V22C26.125 19.25 20.625 17.875 17.875 17.875Z" fill="white"/>
</svg>
