<svg width="20" height="20" viewBox="0 0 20 20" fill="none" xmlns="http://www.w3.org/2000/svg">
<rect width="20" height="20" rx="3" fill="white"/>
<path d="M8.91472 13.8358C9.92657 13.8358 10.8613 13.5274 11.6419 13.007L14.4655 15.8306C14.6872 16.0522 15.0534 16.0522 15.2846 15.8306L15.8339 15.2813C16.0555 15.0596 16.0555 14.6934 15.8339 14.4622L13.0007 11.6482C13.521 10.8677 13.8294 9.93292 13.8294 8.92106C13.8294 6.21315 11.6226 4.00635 8.91472 4.00635C6.2068 4.00635 4 6.21315 4 8.92106C4 11.6289 6.19717 13.8358 8.91472 13.8358ZM8.91472 5.93369C10.5626 5.93369 11.9021 7.27319 11.9021 8.92106C11.9021 10.5689 10.5626 11.9084 8.91472 11.9084C7.26684 11.9084 5.92734 10.5689 5.92734 8.92106C5.92734 7.27319 7.26684 5.93369 8.91472 5.93369Z" fill="black"/>
</svg>
