<svg width="27" height="26" viewBox="0 0 27 26" fill="none" xmlns="http://www.w3.org/2000/svg">
<path d="M13.4168 7.58333C16.5026 7.58333 19.0071 10.01 19.0071 13C19.0071 13.7042 18.8617 14.365 18.6046 14.9825L21.8693 18.1458C23.5576 16.7808 24.8881 15.015 25.7043 13C23.77 8.24417 18.9959 4.875 13.4056 4.875C11.8403 4.875 10.3421 5.14583 8.95575 5.63333L11.3708 7.97333C12.008 7.72417 12.6901 7.58333 13.4168 7.58333ZM2.23622 4.62583L4.78539 7.09583L5.2997 7.59417C3.44372 8.99167 1.99025 10.855 1.11816 13C3.0524 17.7558 7.82651 21.125 13.4168 21.125C15.1498 21.125 16.8045 20.8 18.3139 20.215L18.7835 20.67L22.0594 23.8333L23.4793 22.4575L3.65616 3.25L2.23622 4.62583ZM8.41908 10.6167L10.1521 12.2958C10.0962 12.5233 10.0626 12.7617 10.0626 13C10.0626 14.7983 11.5608 16.25 13.4168 16.25C13.6628 16.25 13.9087 16.2175 14.1435 16.1633L15.8765 17.8425C15.1274 18.2 14.3001 18.4167 13.4168 18.4167C10.331 18.4167 7.82651 15.99 7.82651 13C7.82651 12.1442 8.05012 11.3425 8.41908 10.6167ZM13.2379 9.77167L16.7598 13.1842L16.7822 13.0108C16.7822 11.2125 15.284 9.76083 13.428 9.76083L13.2379 9.77167Z" fill="white"/>
</svg>
